<?xml version="1.0" standalone="no"?>
<!DOCTYPE svg PUBLIC "-//W3C//DTD SVG 20010904//EN"
 "http://www.w3.org/TR/2001/REC-SVG-20010904/DTD/svg10.dtd">
<svg version="1.0" xmlns="http://www.w3.org/2000/svg"
 width="512.000000pt" height="512.000000pt" viewBox="0 0 512.000000 512.000000"
 preserveAspectRatio="xMidYMid meet">
<metadata>
Created by potrace 1.16, written by Peter Selinger 2001-2019
</metadata>
<g transform="translate(0.000000,512.000000) scale(0.100000,-0.100000)"
fill="#000000" stroke="none">
<path d="M2326 5104 c-104 -19 -241 -65 -345 -116 -231 -114 -446 -328 -566
-564 -93 -181 -135 -364 -135 -584 0 -272 68 -497 218 -725 60 -90 247 -277
337 -337 153 -101 332 -173 499 -203 115 -20 337 -20 452 0 250 44 478 161
665 342 202 195 327 429 374 699 19 111 19 336 0 447 -46 266 -162 485 -359
683 -198 197 -417 313 -683 359 -108 19 -350 18 -457 -1z"/>
<path d="M1290 2335 c-279 -47 -516 -169 -710 -365 -165 -167 -274 -362 -337
-602 l-27 -103 -4 -549 -3 -548 25 -53 c17 -34 41 -63 68 -81 l41 -29 2217 0
2217 0 41 29 c27 18 51 47 67 81 l26 52 -4 544 c-4 589 -4 590 -63 769 -29 85
-99 229 -146 298 -191 282 -463 466 -808 548 -70 17 -163 18 -1300 20 -957 2
-1241 -1 -1300 -11z m2215 -1086 c123 -63 152 -213 62 -316 -68 -77 -5 -73
-1005 -73 -976 0 -931 -3 -996 58 -90 84 -85 236 11 309 69 52 61 52 1003 50
l876 -2 49 -26z"/>
</g>
</svg>
